<svg width="2163" height="2304" viewBox="0 0 2163 2304" fill="none" xmlns="http://www.w3.org/2000/svg">
<g id="Frame 1">
<rect width="2163" height="2304" fill="white" fill-opacity="0.01"/>
<g id="Timer">
<rect id="Rectangle 2" x="449.738" y="415" width="148" height="108.388" transform="rotate(45.0715 449.738 415)" fill="#0F0F0F"/>
<rect id="Rectangle 3" x="1602.74" y="372" width="148" height="108.388" transform="rotate(45.0715 1602.74 372)" fill="#0F0F0F"/>
<rect id="Rectangle 4" x="962.511" y="243.495" width="148" height="39.7446" transform="rotate(0.479276 962.511 243.495)" fill="#0F0F0F"/>
<g id="face" filter="url(#filter0_d)">
<circle cx="1040.82" cy="1094.82" r="808.5" transform="rotate(1.16876 1040.82 1094.82)" fill="white"/>
<circle cx="1040.82" cy="1094.82" r="793.5" transform="rotate(1.16876 1040.82 1094.82)" stroke="#2B2929" stroke-width="30"/>
</g>
<circle id="face_2" cx="1041" cy="1095" r="726" fill="#E5E5E5" stroke="#9DB6C1" stroke-width="80"/>
<circle id="face_3" cx="1058.03" cy="1102.03" r="680" transform="rotate(1.16876 1058.03 1102.03)" fill="white" stroke="#2B2929" stroke-width="30"/>
<path id="55" d="M700.656 566.438L704.594 531.75H742.844V543.047H715.703L714.016 557.719C717.234 556 720.656 555.141 724.281 555.141C730.781 555.141 735.875 557.156 739.562 561.188C743.25 565.219 745.094 570.859 745.094 578.109C745.094 582.516 744.156 586.469 742.281 589.969C740.438 593.438 737.781 596.141 734.312 598.078C730.844 599.984 726.75 600.938 722.031 600.938C717.906 600.938 714.078 600.109 710.547 598.453C707.016 596.766 704.219 594.406 702.156 591.375C700.125 588.344 699.047 584.891 698.922 581.016H712.328C712.609 583.859 713.594 586.078 715.281 587.672C717 589.234 719.234 590.016 721.984 590.016C725.047 590.016 727.406 588.922 729.062 586.734C730.719 584.516 731.547 581.391 731.547 577.359C731.547 573.484 730.594 570.516 728.688 568.453C726.781 566.391 724.078 565.359 720.578 565.359C717.359 565.359 714.75 566.203 712.75 567.891L711.438 569.109L700.656 566.438ZM755.781 566.438L759.719 531.75H797.969V543.047H770.828L769.141 557.719C772.359 556 775.781 555.141 779.406 555.141C785.906 555.141 791 557.156 794.688 561.188C798.375 565.219 800.219 570.859 800.219 578.109C800.219 582.516 799.281 586.469 797.406 589.969C795.562 593.438 792.906 596.141 789.438 598.078C785.969 599.984 781.875 600.938 777.156 600.938C773.031 600.938 769.203 600.109 765.672 598.453C762.141 596.766 759.344 594.406 757.281 591.375C755.25 588.344 754.172 584.891 754.047 581.016H767.453C767.734 583.859 768.719 586.078 770.406 587.672C772.125 589.234 774.359 590.016 777.109 590.016C780.172 590.016 782.531 588.922 784.188 586.734C785.844 584.516 786.672 581.391 786.672 577.359C786.672 573.484 785.719 570.516 783.812 568.453C781.906 566.391 779.203 565.359 775.703 565.359C772.484 565.359 769.875 566.203 767.875 567.891L766.562 569.109L755.781 566.438Z" fill="black"/>
<path id="50" d="M476.656 784.438L480.594 749.75H518.844V761.047H491.703L490.016 775.719C493.234 774 496.656 773.141 500.281 773.141C506.781 773.141 511.875 775.156 515.562 779.188C519.25 783.219 521.094 788.859 521.094 796.109C521.094 800.516 520.156 804.469 518.281 807.969C516.438 811.438 513.781 814.141 510.312 816.078C506.844 817.984 502.75 818.938 498.031 818.938C493.906 818.938 490.078 818.109 486.547 816.453C483.016 814.766 480.219 812.406 478.156 809.375C476.125 806.344 475.047 802.891 474.922 799.016H488.328C488.609 801.859 489.594 804.078 491.281 805.672C493 807.234 495.234 808.016 497.984 808.016C501.047 808.016 503.406 806.922 505.062 804.734C506.719 802.516 507.547 799.391 507.547 795.359C507.547 791.484 506.594 788.516 504.688 786.453C502.781 784.391 500.078 783.359 496.578 783.359C493.359 783.359 490.75 784.203 488.75 785.891L487.438 787.109L476.656 784.438ZM575.703 789.781C575.703 799.219 573.75 806.438 569.844 811.438C565.938 816.438 560.219 818.938 552.688 818.938C545.25 818.938 539.562 816.484 535.625 811.578C531.688 806.672 529.672 799.641 529.578 790.484V777.922C529.578 768.391 531.547 761.156 535.484 756.219C539.453 751.281 545.156 748.812 552.594 748.812C560.031 748.812 565.719 751.266 569.656 756.172C573.594 761.047 575.609 768.062 575.703 777.219V789.781ZM562.156 776C562.156 770.344 561.375 766.234 559.812 763.672C558.281 761.078 555.875 759.781 552.594 759.781C549.406 759.781 547.047 761.016 545.516 763.484C544.016 765.922 543.219 769.75 543.125 774.969V791.562C543.125 797.125 543.875 801.266 545.375 803.984C546.906 806.672 549.344 808.016 552.688 808.016C556 808.016 558.391 806.719 559.859 804.125C561.328 801.531 562.094 797.562 562.156 792.219V776Z" fill="black"/>
<path id="45" d="M449.078 1105.47H460.68V1121.85H449.078V1144H428.758V1121.85H386.781L385.867 1109.05L428.547 1041.62H449.078V1105.47ZM406.117 1105.47H428.758V1069.33L427.422 1071.65L406.117 1105.47ZM474.672 1093.66L480.578 1041.62H537.953V1058.57H497.242L494.711 1080.58C499.539 1078 504.672 1076.71 510.109 1076.71C519.859 1076.71 527.5 1079.73 533.031 1085.78C538.562 1091.83 541.328 1100.29 541.328 1111.16C541.328 1117.77 539.922 1123.7 537.109 1128.95C534.344 1134.16 530.359 1138.21 525.156 1141.12C519.953 1143.98 513.812 1145.41 506.734 1145.41C500.547 1145.41 494.805 1144.16 489.508 1141.68C484.211 1139.15 480.016 1135.61 476.922 1131.06C473.875 1126.52 472.258 1121.34 472.07 1115.52H492.18C492.602 1119.79 494.078 1123.12 496.609 1125.51C499.188 1127.85 502.539 1129.02 506.664 1129.02C511.258 1129.02 514.797 1127.38 517.281 1124.1C519.766 1120.77 521.008 1116.09 521.008 1110.04C521.008 1104.23 519.578 1099.77 516.719 1096.68C513.859 1093.59 509.805 1092.04 504.555 1092.04C499.727 1092.04 495.812 1093.3 492.812 1095.84L490.844 1097.66L474.672 1093.66Z" fill="black"/>
<path id="40" d="M509.719 1400.31H517.453V1411.23H509.719V1426H496.172V1411.23H468.188L467.578 1402.7L496.031 1357.75H509.719V1400.31ZM481.078 1400.31H496.172V1376.22L495.281 1377.77L481.078 1400.31ZM570.703 1397.78C570.703 1407.22 568.75 1414.44 564.844 1419.44C560.938 1424.44 555.219 1426.94 547.688 1426.94C540.25 1426.94 534.562 1424.48 530.625 1419.58C526.688 1414.67 524.672 1407.64 524.578 1398.48V1385.92C524.578 1376.39 526.547 1369.16 530.484 1364.22C534.453 1359.28 540.156 1356.81 547.594 1356.81C555.031 1356.81 560.719 1359.27 564.656 1364.17C568.594 1369.05 570.609 1376.06 570.703 1385.22V1397.78ZM557.156 1384C557.156 1378.34 556.375 1374.23 554.812 1371.67C553.281 1369.08 550.875 1367.78 547.594 1367.78C544.406 1367.78 542.047 1369.02 540.516 1371.48C539.016 1373.92 538.219 1377.75 538.125 1382.97V1399.56C538.125 1405.12 538.875 1409.27 540.375 1411.98C541.906 1414.67 544.344 1416.02 547.688 1416.02C551 1416.02 553.391 1414.72 554.859 1412.12C556.328 1409.53 557.094 1405.56 557.156 1400.22V1384Z" fill="black"/>
<path id="35" d="M682.422 1604.88H689.641C693.078 1604.88 695.625 1604.02 697.281 1602.3C698.938 1600.58 699.766 1598.3 699.766 1595.45C699.766 1592.7 698.938 1590.56 697.281 1589.03C695.656 1587.5 693.406 1586.73 690.531 1586.73C687.938 1586.73 685.766 1587.45 684.016 1588.89C682.266 1590.3 681.391 1592.14 681.391 1594.42H667.844C667.844 1590.86 668.797 1587.67 670.703 1584.86C672.641 1582.02 675.328 1579.8 678.766 1578.2C682.234 1576.61 686.047 1575.81 690.203 1575.81C697.422 1575.81 703.078 1577.55 707.172 1581.02C711.266 1584.45 713.312 1589.2 713.312 1595.27C713.312 1598.39 712.359 1601.27 710.453 1603.89C708.547 1606.52 706.047 1608.53 702.953 1609.94C706.797 1611.31 709.656 1613.38 711.531 1616.12C713.438 1618.88 714.391 1622.12 714.391 1625.88C714.391 1631.94 712.172 1636.8 707.734 1640.45C703.328 1644.11 697.484 1645.94 690.203 1645.94C683.391 1645.94 677.812 1644.14 673.469 1640.55C669.156 1636.95 667 1632.2 667 1626.3H680.547C680.547 1628.86 681.5 1630.95 683.406 1632.58C685.344 1634.2 687.719 1635.02 690.531 1635.02C693.75 1635.02 696.266 1634.17 698.078 1632.48C699.922 1630.77 700.844 1628.5 700.844 1625.69C700.844 1618.88 697.094 1615.47 689.594 1615.47H682.422V1604.88ZM725.781 1611.44L729.719 1576.75H767.969V1588.05H740.828L739.141 1602.72C742.359 1601 745.781 1600.14 749.406 1600.14C755.906 1600.14 761 1602.16 764.688 1606.19C768.375 1610.22 770.219 1615.86 770.219 1623.11C770.219 1627.52 769.281 1631.47 767.406 1634.97C765.562 1638.44 762.906 1641.14 759.438 1643.08C755.969 1644.98 751.875 1645.94 747.156 1645.94C743.031 1645.94 739.203 1645.11 735.672 1643.45C732.141 1641.77 729.344 1639.41 727.281 1636.38C725.25 1633.34 724.172 1629.89 724.047 1626.02H737.453C737.734 1628.86 738.719 1631.08 740.406 1632.67C742.125 1634.23 744.359 1635.02 747.109 1635.02C750.172 1635.02 752.531 1633.92 754.188 1631.73C755.844 1629.52 756.672 1626.39 756.672 1622.36C756.672 1618.48 755.719 1615.52 753.812 1613.45C751.906 1611.39 749.203 1610.36 745.703 1610.36C742.484 1610.36 739.875 1611.2 737.875 1612.89L736.562 1614.11L725.781 1611.44Z" fill="black"/>
<path id="30" d="M985.945 1675.81H996.773C1001.93 1675.81 1005.75 1674.52 1008.23 1671.95C1010.72 1669.37 1011.96 1665.95 1011.96 1661.68C1011.96 1657.55 1010.72 1654.34 1008.23 1652.05C1005.8 1649.75 1002.42 1648.6 998.109 1648.6C994.219 1648.6 990.961 1649.68 988.336 1651.84C985.711 1653.95 984.398 1656.71 984.398 1660.13H964.078C964.078 1654.79 965.508 1650.01 968.367 1645.79C971.273 1641.52 975.305 1638.2 980.461 1635.8C985.664 1633.41 991.383 1632.22 997.617 1632.22C1008.45 1632.22 1016.93 1634.82 1023.07 1640.02C1029.21 1645.18 1032.28 1652.3 1032.28 1661.4C1032.28 1666.09 1030.85 1670.4 1027.99 1674.34C1025.13 1678.27 1021.38 1681.3 1016.74 1683.41C1022.51 1685.47 1026.8 1688.56 1029.61 1692.69C1032.47 1696.81 1033.9 1701.69 1033.9 1707.31C1033.9 1716.41 1030.57 1723.7 1023.91 1729.18C1017.3 1734.66 1008.54 1737.41 997.617 1737.41C987.398 1737.41 979.031 1734.71 972.516 1729.32C966.047 1723.93 962.812 1716.8 962.812 1707.95H983.133C983.133 1711.79 984.562 1714.93 987.422 1717.37C990.328 1719.8 993.891 1721.02 998.109 1721.02C1002.94 1721.02 1006.71 1719.76 1009.43 1717.23C1012.2 1714.65 1013.58 1711.25 1013.58 1707.03C1013.58 1696.81 1007.95 1691.7 996.703 1691.7H985.945V1675.81ZM1116.87 1693.67C1116.87 1707.83 1113.94 1718.66 1108.08 1726.16C1102.22 1733.66 1093.64 1737.41 1082.34 1737.41C1071.19 1737.41 1062.66 1733.73 1056.75 1726.37C1050.84 1719.01 1047.82 1708.46 1047.68 1694.73V1675.88C1047.68 1661.59 1050.63 1650.73 1056.54 1643.33C1062.49 1635.92 1071.05 1632.22 1082.2 1632.22C1093.36 1632.22 1101.89 1635.9 1107.8 1643.26C1113.7 1650.57 1116.73 1661.09 1116.87 1674.83V1693.67ZM1096.55 1673C1096.55 1664.52 1095.38 1658.35 1093.03 1654.51C1090.73 1650.62 1087.12 1648.67 1082.2 1648.67C1077.42 1648.67 1073.88 1650.52 1071.59 1654.23C1069.34 1657.88 1068.14 1663.62 1068 1671.45V1696.34C1068 1704.69 1069.12 1710.9 1071.38 1714.98C1073.67 1719.01 1077.33 1721.02 1082.34 1721.02C1087.31 1721.02 1090.9 1719.08 1093.1 1715.19C1095.3 1711.3 1096.45 1705.34 1096.55 1697.33V1673Z" fill="black"/>
<path id="25" d="M1359.42 1645H1312.64V1635.72L1334.72 1612.19C1337.75 1608.88 1339.98 1605.98 1341.42 1603.52C1342.89 1601.05 1343.62 1598.7 1343.62 1596.48C1343.62 1593.45 1342.86 1591.08 1341.33 1589.36C1339.8 1587.61 1337.61 1586.73 1334.77 1586.73C1331.7 1586.73 1329.28 1587.8 1327.5 1589.92C1325.75 1592.02 1324.88 1594.78 1324.88 1598.22H1311.28C1311.28 1594.06 1312.27 1590.27 1314.23 1586.83C1316.23 1583.39 1319.05 1580.7 1322.67 1578.77C1326.3 1576.8 1330.41 1575.81 1335 1575.81C1342.03 1575.81 1347.48 1577.5 1351.36 1580.88C1355.27 1584.25 1357.22 1589.02 1357.22 1595.17C1357.22 1598.55 1356.34 1601.98 1354.59 1605.48C1352.84 1608.98 1349.84 1613.06 1345.59 1617.72L1330.08 1634.08H1359.42V1645ZM1369.78 1611.44L1373.72 1576.75H1411.97V1588.05H1384.83L1383.14 1602.72C1386.36 1601 1389.78 1600.14 1393.41 1600.14C1399.91 1600.14 1405 1602.16 1408.69 1606.19C1412.38 1610.22 1414.22 1615.86 1414.22 1623.11C1414.22 1627.52 1413.28 1631.47 1411.41 1634.97C1409.56 1638.44 1406.91 1641.14 1403.44 1643.08C1399.97 1644.98 1395.88 1645.94 1391.16 1645.94C1387.03 1645.94 1383.2 1645.11 1379.67 1643.45C1376.14 1641.77 1373.34 1639.41 1371.28 1636.38C1369.25 1633.34 1368.17 1629.89 1368.05 1626.02H1381.45C1381.73 1628.86 1382.72 1631.08 1384.41 1632.67C1386.12 1634.23 1388.36 1635.02 1391.11 1635.02C1394.17 1635.02 1396.53 1633.92 1398.19 1631.73C1399.84 1629.52 1400.67 1626.39 1400.67 1622.36C1400.67 1618.48 1399.72 1615.52 1397.81 1613.45C1395.91 1611.39 1393.2 1610.36 1389.7 1610.36C1386.48 1610.36 1383.88 1611.2 1381.88 1612.89L1380.56 1614.11L1369.78 1611.44Z" fill="black"/>
<path id="20" d="M1565.42 1422H1518.64V1412.72L1540.72 1389.19C1543.75 1385.88 1545.98 1382.98 1547.42 1380.52C1548.89 1378.05 1549.62 1375.7 1549.62 1373.48C1549.62 1370.45 1548.86 1368.08 1547.33 1366.36C1545.8 1364.61 1543.61 1363.73 1540.77 1363.73C1537.7 1363.73 1535.28 1364.8 1533.5 1366.92C1531.75 1369.02 1530.88 1371.78 1530.88 1375.22H1517.28C1517.28 1371.06 1518.27 1367.27 1520.23 1363.83C1522.23 1360.39 1525.05 1357.7 1528.67 1355.77C1532.3 1353.8 1536.41 1352.81 1541 1352.81C1548.03 1352.81 1553.48 1354.5 1557.36 1357.88C1561.27 1361.25 1563.22 1366.02 1563.22 1372.17C1563.22 1375.55 1562.34 1378.98 1560.59 1382.48C1558.84 1385.98 1555.84 1390.06 1551.59 1394.72L1536.08 1411.08H1565.42V1422ZM1619.7 1393.78C1619.7 1403.22 1617.75 1410.44 1613.84 1415.44C1609.94 1420.44 1604.22 1422.94 1596.69 1422.94C1589.25 1422.94 1583.56 1420.48 1579.62 1415.58C1575.69 1410.67 1573.67 1403.64 1573.58 1394.48V1381.92C1573.58 1372.39 1575.55 1365.16 1579.48 1360.22C1583.45 1355.28 1589.16 1352.81 1596.59 1352.81C1604.03 1352.81 1609.72 1355.27 1613.66 1360.17C1617.59 1365.05 1619.61 1372.06 1619.7 1381.22V1393.78ZM1606.16 1380C1606.16 1374.34 1605.38 1370.23 1603.81 1367.67C1602.28 1365.08 1599.88 1363.78 1596.59 1363.78C1593.41 1363.78 1591.05 1365.02 1589.52 1367.48C1588.02 1369.92 1587.22 1373.75 1587.12 1378.97V1395.56C1587.12 1401.12 1587.88 1405.27 1589.38 1407.98C1590.91 1410.67 1593.34 1412.02 1596.69 1412.02C1600 1412.02 1602.39 1410.72 1603.86 1408.12C1605.33 1405.53 1606.09 1401.56 1606.16 1396.22V1380Z" fill="black"/>
<path id="15" d="M1559.32 1144H1539V1065.67L1514.74 1073.2V1056.67L1557.14 1041.48H1559.32V1144ZM1595.67 1093.66L1601.58 1041.62H1658.95V1058.57H1618.24L1615.71 1080.58C1620.54 1078 1625.67 1076.71 1631.11 1076.71C1640.86 1076.71 1648.5 1079.73 1654.03 1085.78C1659.56 1091.83 1662.33 1100.29 1662.33 1111.16C1662.33 1117.77 1660.92 1123.7 1658.11 1128.95C1655.34 1134.16 1651.36 1138.21 1646.16 1141.12C1640.95 1143.98 1634.81 1145.41 1627.73 1145.41C1621.55 1145.41 1615.8 1144.16 1610.51 1141.68C1605.21 1139.15 1601.02 1135.61 1597.92 1131.06C1594.88 1126.52 1593.26 1121.34 1593.07 1115.52H1613.18C1613.6 1119.79 1615.08 1123.12 1617.61 1125.51C1620.19 1127.85 1623.54 1129.02 1627.66 1129.02C1632.26 1129.02 1635.8 1127.38 1638.28 1124.1C1640.77 1120.77 1642.01 1116.09 1642.01 1110.04C1642.01 1104.23 1640.58 1099.77 1637.72 1096.68C1634.86 1093.59 1630.8 1092.04 1625.55 1092.04C1620.73 1092.04 1616.81 1093.3 1613.81 1095.84L1611.84 1097.66L1595.67 1093.66Z" fill="black"/>
<path id="10" d="M1525.55 818H1512V765.781L1495.83 770.797V759.781L1524.09 749.656H1525.55V818ZM1593.7 789.781C1593.7 799.219 1591.75 806.438 1587.84 811.438C1583.94 816.438 1578.22 818.938 1570.69 818.938C1563.25 818.938 1557.56 816.484 1553.62 811.578C1549.69 806.672 1547.67 799.641 1547.58 790.484V777.922C1547.58 768.391 1549.55 761.156 1553.48 756.219C1557.45 751.281 1563.16 748.812 1570.59 748.812C1578.03 748.812 1583.72 751.266 1587.66 756.172C1591.59 761.047 1593.61 768.062 1593.7 777.219V789.781ZM1580.16 776C1580.16 770.344 1579.38 766.234 1577.81 763.672C1576.28 761.078 1573.88 759.781 1570.59 759.781C1567.41 759.781 1565.05 761.016 1563.52 763.484C1562.02 765.922 1561.22 769.75 1561.12 774.969V791.562C1561.12 797.125 1561.88 801.266 1563.38 803.984C1564.91 806.672 1567.34 808.016 1570.69 808.016C1574 808.016 1576.39 806.719 1577.86 804.125C1579.33 801.531 1580.09 797.562 1580.16 792.219V776Z" fill="black"/>
<path id="5" d="M1321.66 566.438L1325.59 531.75H1363.84V543.047H1336.7L1335.02 557.719C1338.23 556 1341.66 555.141 1345.28 555.141C1351.78 555.141 1356.88 557.156 1360.56 561.188C1364.25 565.219 1366.09 570.859 1366.09 578.109C1366.09 582.516 1365.16 586.469 1363.28 589.969C1361.44 593.438 1358.78 596.141 1355.31 598.078C1351.84 599.984 1347.75 600.938 1343.03 600.938C1338.91 600.938 1335.08 600.109 1331.55 598.453C1328.02 596.766 1325.22 594.406 1323.16 591.375C1321.12 588.344 1320.05 584.891 1319.92 581.016H1333.33C1333.61 583.859 1334.59 586.078 1336.28 587.672C1338 589.234 1340.23 590.016 1342.98 590.016C1346.05 590.016 1348.41 588.922 1350.06 586.734C1351.72 584.516 1352.55 581.391 1352.55 577.359C1352.55 573.484 1351.59 570.516 1349.69 568.453C1347.78 566.391 1345.08 565.359 1341.58 565.359C1338.36 565.359 1335.75 566.203 1333.75 567.891L1332.44 569.109L1321.66 566.438Z" fill="black"/>
<path id="0" d="M1066.52 512.672C1066.52 526.828 1063.59 537.656 1057.73 545.156C1051.88 552.656 1043.3 556.406 1032 556.406C1020.84 556.406 1012.31 552.727 1006.41 545.367C1000.5 538.008 997.477 527.461 997.336 513.727V494.883C997.336 480.586 1000.29 469.734 1006.2 462.328C1012.15 454.922 1020.7 451.219 1031.86 451.219C1043.02 451.219 1051.55 454.898 1057.45 462.258C1063.36 469.57 1066.38 480.094 1066.52 493.828V512.672ZM1046.2 492C1046.2 483.516 1045.03 477.352 1042.69 473.508C1040.39 469.617 1036.78 467.672 1031.86 467.672C1027.08 467.672 1023.54 469.523 1021.24 473.227C1018.99 476.883 1017.8 482.625 1017.66 490.453V515.344C1017.66 523.688 1018.78 529.898 1021.03 533.977C1023.33 538.008 1026.98 540.023 1032 540.023C1036.97 540.023 1040.55 538.078 1042.76 534.188C1044.96 530.297 1046.11 524.344 1046.2 516.328V492Z" fill="black"/>
<line id="Line 8" x1="1371.5" y1="491.532" x2="1411.5" y2="422.25" stroke="#39383F" stroke-width="15"/>
<line id="Line 24" x1="1247.59" y1="409.99" x2="1257.94" y2="371.353" stroke="#39383F" stroke-width="5"/>
<line id="Line 32" x1="313.647" y1="882.585" x2="352.284" y2="892.938" stroke="#39383F" stroke-width="5"/>
<line id="Line 31" x1="327.353" y1="1305.94" x2="365.99" y2="1295.58" stroke="#39383F" stroke-width="5"/>
<line id="Line 30" x1="1726.35" y1="887.938" x2="1764.99" y2="877.585" stroke="#39383F" stroke-width="5"/>
<line id="Line 29" x1="529.768" y1="539.232" x2="558.052" y2="567.516" stroke="#39383F" stroke-width="5"/>
<line id="Line 35" x1="1728.65" y1="1249.59" x2="1767.28" y2="1259.94" stroke="#39383F" stroke-width="5"/>
<line id="Line 28" x1="854.415" y1="360.353" x2="864.768" y2="398.99" stroke="#39383F" stroke-width="5"/>
<line id="Line 33" x1="1262.41" y1="1764.35" x2="1272.77" y2="1802.99" stroke="#39383F" stroke-width="5"/>
<line id="Line 26" x1="1569.77" y1="1572.23" x2="1598.05" y2="1600.52" stroke="#39383F" stroke-width="5"/>
<line id="Line 27" x1="844.585" y1="1822.99" x2="854.938" y2="1784.35" stroke="#39383F" stroke-width="5"/>
<line id="Line 25" x1="1524.23" y1="575.516" x2="1552.52" y2="547.232" stroke="#39383F" stroke-width="5"/>
<line id="Line 34" x1="512.232" y1="1614.52" x2="540.516" y2="1586.23" stroke="#39383F" stroke-width="5"/>
<line id="Line 22" x1="675.495" y1="1670.75" x2="635.495" y2="1740.03" stroke="#39383F" stroke-width="15"/>
<line id="Line 9" x1="384.75" y1="702.505" x2="454.032" y2="742.505" stroke="#39383F" stroke-width="15"/>
<line id="Line 19" x1="1644.75" y1="1399.5" x2="1714.03" y2="1439.5" stroke="#39383F" stroke-width="15"/>
<line id="Line 14" x1="670.495" y1="419.25" x2="710.495" y2="488.532" stroke="#39383F" stroke-width="15"/>
<line id="Line 15" x1="1415.5" y1="1663.25" x2="1455.5" y2="1732.53" stroke="#2B2929" stroke-width="15"/>
<line id="Line 11" x1="373.25" y1="1455.5" x2="442.532" y2="1415.5" stroke="#39383F" stroke-width="15"/>
<line id="Line 23" x1="1620.25" y1="722.505" x2="1689.53" y2="682.505" stroke="#39383F" stroke-width="15"/>
<line id="Line 20" x1="267" y1="1098.5" x2="347" y2="1098.5" stroke="#39383F" stroke-width="25"/>
<line id="Line 21" x1="1727" y1="1098.5" x2="1807" y2="1098.5" stroke="#39383F" stroke-width="25"/>
<line id="Line 17" x1="1037.5" y1="401" x2="1037.5" y2="321" stroke="#3C3A3A" stroke-width="25"/>
<line id="Line 18" x1="1044.5" y1="1781" x2="1044.5" y2="1861" stroke="#39383F" stroke-width="25"/>
<path id="minute-hand" d="M1032 596L1073 1111H991L1032 596Z" fill="#39383F"/>
<path id="second-hand" d="M1032 517L1047 1083H1017L1032 517Z" fill="#B81A24"/>
<g id="analog-lap-btn">
<g id="analog-lap" filter="url(#filter1_d)">
<rect x="1592.55" y="231" width="330" height="139.54" rx="20" transform="rotate(41 1592.55 231)" fill="#878484"/>
<rect x="1591.56" y="216.892" width="350" height="159.54" rx="30" transform="rotate(41 1591.56 216.892)" stroke="black" stroke-width="20" stroke-linecap="round" stroke-linejoin="round"/>
</g>
<path id="lap-text" d="M1604.67 361.933L1627.2 381.523L1619.79 390.049L1586.64 361.233L1631.42 309.724L1642.03 318.95L1604.67 361.933ZM1647.42 414.067C1647.75 412.737 1648.4 411.296 1649.38 409.743C1644.5 410.35 1640.09 408.931 1636.12 405.487C1632.37 402.227 1630.2 398.436 1629.61 394.113C1629.05 389.811 1630.2 386.01 1633.07 382.708C1636.59 378.651 1640.8 376.84 1645.68 377.274C1650.59 377.728 1655.89 380.414 1661.59 385.331L1666.3 389.422L1668.21 387.228C1669.74 385.459 1670.51 383.645 1670.52 381.784C1670.54 379.943 1669.58 378.172 1667.62 376.471C1665.9 374.974 1664.18 374.208 1662.48 374.172C1660.79 374.157 1659.32 374.869 1658.07 376.308L1647.85 367.42C1649.78 365.203 1652.24 363.746 1655.25 363.048C1658.26 362.35 1661.47 362.557 1664.9 363.669C1668.34 364.758 1671.62 366.655 1674.73 369.361C1679.45 373.462 1682.15 377.902 1682.84 382.683C1683.57 387.461 1682.07 391.996 1678.34 396.288L1663.92 412.88C1660.79 416.532 1658.9 419.721 1658.28 422.445L1657.75 423.046L1647.42 414.067ZM1645.15 399.606C1646.66 400.918 1648.34 401.798 1650.18 402.244C1652.05 402.667 1653.78 402.579 1655.38 401.98L1661.1 395.4L1657.28 392.079C1652.16 387.63 1647.9 387.031 1644.5 390.282L1643.94 390.852C1642.83 392.126 1642.37 393.565 1642.55 395.169C1642.72 396.774 1643.59 398.253 1645.15 399.606ZM1714.87 439.719C1709.75 445.615 1704.29 449.176 1698.51 450.4C1692.77 451.621 1687.62 450.253 1683.07 446.296C1679.2 442.933 1677.24 438.873 1677.2 434.113L1661.52 452.156L1651.29 443.268L1697.36 390.273L1706.84 398.515L1703.93 402.573C1708.99 401.754 1713.52 403.076 1717.5 406.541C1722.22 410.642 1724.37 415.575 1723.95 421.341C1723.54 427.107 1720.66 433.057 1715.33 439.189L1714.87 439.719ZM1705.29 430.089C1708.39 426.527 1710.14 423.226 1710.55 420.185C1710.98 417.165 1709.99 414.609 1707.59 412.518C1704.38 409.729 1701.11 409.039 1697.77 410.446L1684.15 426.118C1683.21 429.728 1684.34 432.927 1687.55 435.716C1692.43 439.96 1698.34 438.084 1705.29 430.089Z" fill="white"/>
</g>
<g id="analog-reset-btn">
<g id="analog-reset" filter="url(#filter2_d)">
<path d="M214.308 501.038C207.061 492.701 207.945 480.069 216.281 472.822L435.147 282.565C443.483 275.318 456.115 276.202 463.362 284.538L535.305 367.299C542.551 375.635 541.668 388.267 533.332 395.514L314.466 585.771C306.13 593.018 293.497 592.134 286.251 583.798L214.308 501.038Z" fill="#746C6C"/>
<path d="M209.72 465.275C197.216 476.145 195.891 495.094 206.761 507.598L278.703 590.359C289.573 602.863 308.522 604.188 321.026 593.318L539.892 403.061C552.397 392.191 553.722 373.242 542.852 360.738L470.909 277.977C460.039 265.473 441.091 264.148 428.586 275.018L209.72 465.275Z" stroke="#2B2929" stroke-width="20" stroke-linecap="round" stroke-linejoin="round"/>
</g>
<path id="reset-text" d="M315.474 497.086L307.019 504.436L323.41 523.292L312.797 532.518L268.021 481.009L287.16 464.372C293.245 459.082 299.117 456.358 304.777 456.2C310.436 456.042 315.419 458.44 319.724 463.392C322.779 466.907 324.565 470.509 325.082 474.2C325.602 477.847 324.923 481.709 323.043 485.787L352.484 497.149L352.915 497.644L341.523 507.547L315.474 497.086ZM299.546 495.839L308.107 488.397C310.773 486.08 312.252 483.614 312.546 480.999C312.819 478.36 311.92 475.849 309.849 473.467C307.738 471.038 305.381 469.733 302.78 469.551C300.203 469.348 297.487 470.487 294.633 472.968L286.107 480.38L299.546 495.839ZM376.631 478.27C371.018 483.15 364.946 485.405 358.415 485.037C351.907 484.649 346.163 481.589 341.181 475.858L340.32 474.867C336.978 471.023 334.738 466.945 333.599 462.635C332.441 458.301 332.51 454.141 333.808 450.156C335.108 446.127 337.504 442.595 340.994 439.561C346.23 435.01 351.781 433.083 357.646 433.781C363.535 434.459 369.114 437.828 374.383 443.89L378.012 448.064L353.638 469.253C356.141 471.466 358.874 472.609 361.837 472.684C364.824 472.737 367.591 471.657 370.138 469.443C374.076 466.019 375.914 461.917 375.65 457.136L385.563 458.394C385.917 461.896 385.317 465.399 383.765 468.901C382.193 472.379 379.815 475.502 376.631 478.27ZM348.155 447.87C346.127 449.633 345.071 451.752 344.986 454.227C344.925 456.682 345.825 459.337 347.685 462.191L361.907 449.829L361.2 449.015C359.184 446.792 357.054 445.58 354.809 445.378C352.543 445.153 350.325 445.984 348.155 447.87ZM409.132 430.205C408.045 428.955 406.569 428.519 404.704 428.898C402.842 429.233 400.298 430.307 397.07 432.119C386.305 438.122 378.391 438.211 373.327 432.386C370.375 428.99 369.318 424.94 370.156 420.236C370.998 415.488 373.695 411.135 378.246 407.179C383.105 402.955 387.979 400.726 392.868 400.492C397.782 400.238 401.827 401.938 405.005 405.594L394.781 414.482C393.51 413.019 391.993 412.227 390.229 412.103C388.445 411.956 386.551 412.754 384.546 414.497C382.824 415.994 381.83 417.541 381.563 419.139C381.296 420.738 381.686 422.138 382.731 423.341C383.716 424.473 385.046 424.932 386.722 424.717C388.402 424.458 390.74 423.48 393.739 421.785C396.716 420.066 399.355 418.766 401.653 417.886C408.776 415.172 414.46 416.256 418.704 421.138C421.738 424.629 422.701 428.761 421.592 433.535C420.462 438.284 417.527 442.72 412.786 446.841C409.579 449.629 406.233 451.544 402.749 452.585C399.268 453.582 395.959 453.705 392.822 452.954C389.664 452.179 387.08 450.636 385.071 448.325L394.765 439.899C396.438 441.633 398.319 442.44 400.41 442.32C402.5 442.201 404.595 441.229 406.694 439.404C408.652 437.702 409.808 436.055 410.163 434.463C410.521 432.827 410.177 431.407 409.132 430.205ZM453.116 411.783C447.503 416.662 441.431 418.918 434.9 418.55C428.393 418.161 422.648 415.101 417.666 409.37L416.805 408.38C413.463 404.535 411.223 400.458 410.085 396.147C408.926 391.813 408.995 387.654 410.293 383.669C411.593 379.64 413.989 376.108 417.479 373.074C422.715 368.522 428.266 366.596 434.131 367.294C440.021 367.971 445.6 371.341 450.869 377.402L454.497 381.577L430.123 402.765C432.626 404.978 435.359 406.122 438.322 406.196C441.309 406.25 444.076 405.17 446.623 402.955C450.562 399.532 452.399 395.429 452.135 390.648L462.048 391.906C462.402 395.409 461.802 398.911 460.251 402.413C458.678 405.892 456.3 409.015 453.116 411.783ZM424.64 381.383C422.612 383.146 421.556 385.265 421.471 387.74C421.41 390.194 422.31 392.849 424.17 395.704L438.392 383.341L437.685 382.527C435.669 380.304 433.539 379.092 431.294 378.891C429.028 378.666 426.81 379.496 424.64 381.383ZM444.867 333.987L453.047 343.397L459.592 337.708L466.111 345.208L459.567 350.897L476.173 370.001C477.403 371.416 478.556 372.194 479.632 372.336C480.707 372.478 482.011 371.882 483.544 370.55C484.676 369.566 485.607 368.612 486.336 367.688L493.071 375.436C491.599 377.791 489.802 379.892 487.68 381.737C480.51 387.97 473.707 387.527 467.272 380.41L449.343 359.785L443.753 364.644L437.234 357.144L442.823 352.285L434.643 342.875L444.867 333.987Z" fill="#FEF9F9"/>
</g>
<g id="analog-stop-btn">
<g id="analog-stop" filter="url(#filter3_d)">
<path d="M879.064 89.9975C879.24 78.9532 888.335 70.1425 899.38 70.3184L1189.34 74.9349C1200.39 75.1108 1209.2 84.2065 1209.02 95.2508L1207.28 204.896C1207.1 215.94 1198 224.751 1186.96 224.575L896.997 219.958C885.953 219.782 877.142 210.687 877.318 199.642L879.064 89.9975Z" fill="#AA2B32"/>
<path d="M899.539 60.3197C882.973 60.0559 869.329 73.2718 869.065 89.8383L867.32 199.483C867.056 216.05 880.272 229.693 896.838 229.957L1186.8 234.573C1203.37 234.837 1217.01 221.621 1217.28 205.055L1219.02 95.41C1219.28 78.8435 1206.07 65.2 1189.5 64.9362L899.539 60.3197Z" stroke="#2B2929" stroke-width="20" stroke-linecap="round" stroke-linejoin="round"/>
</g>
<g id="stop-text">
<path d="M989.586 159.506C989.6 156.85 988.674 154.813 986.806 153.397C984.939 151.95 981.572 150.432 976.705 148.843C971.839 147.223 967.988 145.64 965.152 144.094C957.425 139.865 953.58 134.204 953.618 127.11C953.637 123.423 954.686 120.147 956.764 117.283C958.873 114.388 961.87 112.138 965.753 110.534C969.668 108.93 974.047 108.141 978.891 108.167C983.766 108.193 988.105 109.107 991.908 110.908C995.711 112.679 998.651 115.179 1000.73 118.408C1002.84 121.639 1003.88 125.3 1003.86 129.394L989.794 129.319C989.811 126.194 988.839 123.767 986.88 122.038C984.92 120.277 982.159 119.388 978.597 119.368C975.16 119.35 972.484 120.07 970.57 121.529C968.656 122.956 967.693 124.857 967.68 127.232C967.668 129.451 968.767 131.316 970.978 132.828C973.22 134.34 976.509 135.764 980.846 137.1C988.833 139.548 994.645 142.564 998.282 146.146C1001.92 149.728 1003.72 154.175 1003.7 159.487C1003.66 165.394 1001.41 170.022 996.918 173.373C992.432 176.693 986.407 178.333 978.845 178.293C973.595 178.265 968.819 177.286 964.517 175.357C960.215 173.396 956.932 170.738 954.668 167.382C952.436 164.026 951.332 160.145 951.356 155.739L965.465 155.815C965.425 163.346 969.904 167.135 978.904 167.183C982.248 167.201 984.861 166.543 986.743 165.21C988.625 163.845 989.573 161.943 989.586 159.506ZM1028.83 114.433L1028.76 126.902L1037.43 126.948L1037.38 136.886L1028.71 136.839L1028.57 162.152C1028.56 164.026 1028.91 165.372 1029.63 166.188C1030.34 167.005 1031.72 167.418 1033.75 167.429C1035.25 167.437 1036.58 167.335 1037.73 167.122L1037.68 177.388C1035.02 178.186 1032.28 178.578 1029.47 178.563C1019.97 178.512 1015.15 173.689 1015.01 164.095L1015.16 136.767L1007.75 136.728L1007.81 126.79L1015.21 126.83L1015.28 114.361L1028.83 114.433ZM1041.33 151.86C1041.36 146.829 1042.35 142.35 1044.31 138.423C1046.27 134.496 1049.06 131.464 1052.7 129.327C1056.37 127.19 1060.61 126.135 1065.42 126.16C1072.26 126.197 1077.83 128.32 1082.12 132.531C1086.44 136.741 1088.83 142.442 1089.3 149.632L1089.37 153.101C1089.33 160.882 1087.12 167.12 1082.76 171.816C1078.39 176.48 1072.55 178.793 1065.23 178.754C1057.92 178.715 1052.09 176.34 1047.74 171.629C1043.42 166.918 1041.28 160.532 1041.33 152.469L1041.33 151.86ZM1054.87 152.917C1054.85 157.729 1055.73 161.421 1057.53 163.994C1059.33 166.535 1061.92 167.814 1065.29 167.832C1068.57 167.85 1071.14 166.613 1073 164.123C1074.86 161.602 1075.8 157.575 1075.83 152.044C1075.86 147.326 1074.95 143.664 1073.12 141.061C1071.29 138.457 1068.71 137.147 1065.36 137.129C1062.05 137.111 1059.48 138.394 1057.65 140.978C1055.83 143.531 1054.9 147.511 1054.87 152.917ZM1143.37 153.342C1143.33 161.155 1141.51 167.411 1137.93 172.11C1134.37 176.779 1129.58 179.097 1123.55 179.065C1118.42 179.038 1114.29 177.234 1111.15 173.655L1111.03 197.561L1097.48 197.489L1097.85 127.271L1110.42 127.338L1110.86 132.309C1114.16 128.389 1118.45 126.443 1123.73 126.472C1129.98 126.505 1134.83 128.843 1138.27 133.487C1141.72 138.13 1143.42 144.514 1143.37 152.639L1143.37 153.342ZM1129.83 152.286C1129.85 147.567 1129.03 143.922 1127.36 141.35C1125.71 138.779 1123.3 137.485 1120.11 137.468C1115.86 137.445 1112.93 139.055 1111.32 142.296L1111.21 163.061C1112.85 166.414 1115.79 168.102 1120.04 168.124C1126.51 168.159 1129.77 162.879 1129.83 152.286Z" fill="#FFFDFD"/>
<path d="M986.806 153.397L986.193 154.188L986.202 154.194L986.806 153.397ZM976.705 148.843L976.389 149.792L976.395 149.794L976.705 148.843ZM965.152 144.094L964.672 144.971L964.674 144.972L965.152 144.094ZM956.764 117.283L955.956 116.694L955.955 116.696L956.764 117.283ZM965.753 110.534L965.374 109.609L965.372 109.61L965.753 110.534ZM991.908 110.908L991.48 111.812L991.486 111.815L991.908 110.908ZM1000.73 118.408L999.886 118.949L999.89 118.955L1000.73 118.408ZM1003.86 129.394L1003.85 130.394L1004.85 130.399L1004.86 129.399L1003.86 129.394ZM989.794 129.319L988.794 129.314L988.789 130.314L989.789 130.319L989.794 129.319ZM986.88 122.038L986.211 122.782L986.218 122.788L986.88 122.038ZM970.57 121.529L971.168 122.33L971.176 122.324L970.57 121.529ZM970.978 132.828L970.414 133.653L970.419 133.657L970.978 132.828ZM980.846 137.1L980.552 138.055L980.553 138.056L980.846 137.1ZM996.918 173.373L997.513 174.177L997.517 174.175L996.918 173.373ZM964.517 175.357L964.102 176.267L964.107 176.269L964.517 175.357ZM954.668 167.382L953.836 167.936L953.839 167.941L954.668 167.382ZM951.356 155.739L951.361 154.739L950.361 154.734L950.356 155.734L951.356 155.739ZM965.465 155.815L966.465 155.82L966.47 154.82L965.47 154.815L965.465 155.815ZM986.743 165.21L987.321 166.025L987.33 166.019L986.743 165.21ZM990.586 159.511C990.602 156.588 989.565 154.234 987.41 152.6L986.202 154.194C987.783 155.393 988.599 157.111 988.586 159.501L990.586 159.511ZM987.419 152.607C985.405 151.046 981.894 149.485 977.016 147.893L976.395 149.794C981.25 151.378 984.473 152.854 986.193 154.188L987.419 152.607ZM977.021 147.894C972.182 146.284 968.393 144.722 965.631 143.216L964.674 144.972C967.582 146.558 971.495 148.163 976.389 149.792L977.021 147.894ZM965.632 143.217C958.135 139.114 954.582 133.748 954.618 127.116L952.618 127.105C952.577 134.66 956.715 140.616 964.672 144.971L965.632 143.217ZM954.618 127.116C954.636 123.628 955.624 120.558 957.573 117.87L955.955 116.696C953.749 119.737 952.639 123.218 952.618 127.105L954.618 127.116ZM957.572 117.872C959.555 115.15 962.392 113.005 966.135 111.458L965.372 109.61C961.347 111.272 958.191 113.626 955.956 116.694L957.572 117.872ZM966.132 111.46C969.909 109.912 974.155 109.142 978.886 109.167L978.896 107.167C973.94 107.14 969.427 107.948 965.374 109.609L966.132 111.46ZM978.886 109.167C983.638 109.192 987.828 110.082 991.48 111.812L992.336 110.004C988.382 108.131 983.895 107.193 978.896 107.167L978.886 109.167ZM991.486 111.815C995.134 113.513 997.921 115.893 999.886 118.949L1001.57 117.868C999.38 114.464 996.288 111.844 992.33 110.002L991.486 111.815ZM999.89 118.955C1001.88 122.011 1002.88 125.478 1002.86 129.389L1004.86 129.399C1004.88 125.122 1003.79 121.266 1001.56 117.862L999.89 118.955ZM1003.86 128.394L989.799 128.319L989.789 130.319L1003.85 130.394L1003.86 128.394ZM990.794 129.324C990.812 125.973 989.76 123.246 987.541 121.288L986.218 122.788C987.919 124.288 988.81 126.416 988.794 129.314L990.794 129.324ZM987.548 121.294C985.351 119.32 982.322 118.388 978.602 118.369L978.592 120.368C981.996 120.387 984.49 121.235 986.211 122.782L987.548 121.294ZM978.602 118.369C975.036 118.349 972.115 119.094 969.964 120.733L971.176 122.324C972.853 121.046 975.283 120.351 978.592 120.368L978.602 118.369ZM969.972 120.727C967.808 122.341 966.694 124.536 966.68 127.227L968.68 127.238C968.691 125.178 969.504 123.571 971.168 122.33L969.972 120.727ZM966.68 127.227C966.666 129.849 967.994 131.999 970.414 133.653L971.543 132.003C969.541 130.634 968.67 129.053 968.68 127.238L966.68 127.227ZM970.419 133.657C972.779 135.249 976.176 136.707 980.552 138.055L981.14 136.144C976.843 134.82 973.661 133.431 971.537 131.999L970.419 133.657ZM980.553 138.056C988.473 140.484 994.109 143.439 997.581 146.858L998.984 145.433C995.182 141.689 989.193 138.613 981.139 136.143L980.553 138.056ZM997.581 146.858C1001.02 150.243 1002.72 154.427 1002.7 159.482L1004.7 159.493C1004.73 153.923 1002.82 149.213 998.984 145.433L997.581 146.858ZM1002.7 159.482C1002.67 165.095 1000.54 169.42 996.32 172.572L997.517 174.175C1002.27 170.624 1004.66 165.693 1004.7 159.493L1002.7 159.482ZM996.324 172.569C992.063 175.722 986.272 177.332 978.85 177.293L978.84 179.293C986.542 179.334 992.801 177.664 997.513 174.177L996.324 172.569ZM978.85 177.293C973.724 177.265 969.087 176.31 964.926 174.444L964.107 176.269C968.551 178.261 973.466 179.264 978.84 179.293L978.85 177.293ZM964.931 174.447C960.768 172.55 957.641 170.002 955.498 166.823L953.839 167.941C956.222 171.474 959.661 174.243 964.102 176.267L964.931 174.447ZM955.501 166.828C953.389 163.654 952.333 159.971 952.356 155.745L950.356 155.734C950.331 160.32 951.483 164.399 953.836 167.936L955.501 166.828ZM951.35 156.739L965.459 156.815L965.47 154.815L951.361 154.739L951.35 156.739ZM964.465 155.809C964.444 159.78 965.622 162.931 968.149 165.069C970.642 167.177 974.284 168.159 978.899 168.183L978.91 166.183C974.525 166.16 971.427 165.222 969.44 163.542C967.487 161.89 966.446 159.38 966.465 155.82L964.465 155.809ZM978.899 168.183C982.362 168.202 985.207 167.523 987.321 166.025L986.165 164.394C984.514 165.563 982.134 166.201 978.91 166.183L978.899 168.183ZM987.33 166.019C989.485 164.457 990.571 162.249 990.586 159.511L988.586 159.501C988.575 161.638 987.766 163.232 986.156 164.4L987.33 166.019ZM1028.83 114.433L1029.83 114.439L1029.83 113.439L1028.83 113.433L1028.83 114.433ZM1028.76 126.902L1027.76 126.897L1027.76 127.897L1028.76 127.902L1028.76 126.902ZM1037.43 126.948L1038.43 126.954L1038.44 125.954L1037.44 125.948L1037.43 126.948ZM1037.38 136.886L1037.37 137.886L1038.37 137.891L1038.38 136.891L1037.38 136.886ZM1028.71 136.839L1028.71 135.839L1027.71 135.834L1027.71 136.834L1028.71 136.839ZM1037.73 167.122L1038.73 167.128L1038.74 165.921L1037.55 166.139L1037.73 167.122ZM1037.68 177.388L1037.97 178.346L1038.67 178.133L1038.68 177.393L1037.68 177.388ZM1015.01 164.095L1014.02 164.089L1014.01 164.099L1014.02 164.109L1015.01 164.095ZM1015.16 136.767L1016.16 136.772L1016.17 135.772L1015.17 135.767L1015.16 136.767ZM1007.75 136.728L1006.75 136.722L1006.75 137.722L1007.75 137.728L1007.75 136.728ZM1007.81 126.79L1007.81 125.79L1006.81 125.785L1006.81 126.785L1007.81 126.79ZM1015.21 126.83L1015.21 127.83L1016.21 127.835L1016.21 126.835L1015.21 126.83ZM1015.28 114.361L1015.29 113.361L1014.29 113.356L1014.28 114.356L1015.28 114.361ZM1027.83 114.428L1027.76 126.897L1029.76 126.907L1029.83 114.439L1027.83 114.428ZM1028.76 127.902L1037.43 127.948L1037.44 125.948L1028.77 125.902L1028.76 127.902ZM1036.43 126.943L1036.38 136.88L1038.38 136.891L1038.43 126.954L1036.43 126.943ZM1037.38 135.886L1028.71 135.839L1028.7 137.839L1037.37 137.886L1037.38 135.886ZM1027.71 136.834L1027.57 162.146L1029.57 162.157L1029.71 136.845L1027.71 136.834ZM1027.57 162.146C1027.56 164.103 1027.92 165.753 1028.88 166.847L1030.38 165.53C1029.91 164.991 1029.56 163.95 1029.57 162.157L1027.57 162.146ZM1028.88 166.847C1029.89 168.006 1031.65 168.418 1033.74 168.429L1033.75 166.429C1031.78 166.419 1030.8 166.004 1030.38 165.53L1028.88 166.847ZM1033.74 168.429C1035.29 168.437 1036.68 168.332 1037.91 168.106L1037.55 166.139C1036.47 166.338 1035.21 166.437 1033.75 166.429L1033.74 168.429ZM1036.73 167.117L1036.68 177.383L1038.68 177.393L1038.73 167.128L1036.73 167.117ZM1037.39 176.43C1034.83 177.199 1032.19 177.577 1029.47 177.563L1029.46 179.563C1032.37 179.578 1035.21 179.173 1037.97 178.346L1037.39 176.43ZM1029.47 177.563C1024.88 177.538 1021.6 176.363 1019.44 174.201C1017.28 172.038 1016.08 168.725 1016.01 164.081L1014.02 164.109C1014.09 169.06 1015.37 172.955 1018.02 175.615C1020.68 178.275 1024.56 179.537 1029.46 179.563L1029.47 177.563ZM1016.01 164.1L1016.16 136.772L1014.16 136.762L1014.02 164.089L1016.01 164.1ZM1015.17 135.767L1007.76 135.728L1007.75 137.728L1015.16 137.767L1015.17 135.767ZM1008.75 136.733L1008.81 126.796L1006.81 126.785L1006.75 136.722L1008.75 136.733ZM1007.8 127.79L1015.21 127.83L1015.22 125.83L1007.81 125.79L1007.8 127.79ZM1016.21 126.835L1016.28 114.366L1014.28 114.356L1014.21 126.824L1016.21 126.835ZM1015.28 115.361L1028.82 115.433L1028.83 113.433L1015.29 113.361L1015.28 115.361ZM1052.7 129.327L1052.2 128.463L1052.19 128.465L1052.7 129.327ZM1082.12 132.531L1081.42 133.244L1081.42 133.247L1082.12 132.531ZM1089.3 149.632L1090.3 149.61L1090.3 149.589L1090.29 149.568L1089.3 149.632ZM1089.37 153.101L1090.37 153.106L1090.37 153.093L1090.37 153.079L1089.37 153.101ZM1082.76 171.816L1083.49 172.5L1083.49 172.497L1082.76 171.816ZM1047.74 171.629L1047 172.305L1047.01 172.307L1047.74 171.629ZM1057.53 163.994L1056.71 164.567L1056.72 164.571L1057.53 163.994ZM1073 164.123L1073.8 164.721L1073.81 164.716L1073 164.123ZM1057.65 140.978L1058.47 141.56L1058.47 141.556L1057.65 140.978ZM1042.33 151.865C1042.36 146.965 1043.32 142.64 1045.2 138.869L1043.41 137.976C1041.38 142.059 1040.36 146.693 1040.33 151.855L1042.33 151.865ZM1045.2 138.869C1047.08 135.108 1049.75 132.224 1053.21 130.189L1052.19 128.465C1048.38 130.704 1045.46 133.883 1043.41 137.976L1045.2 138.869ZM1053.2 130.191C1056.7 128.156 1060.76 127.135 1065.42 127.16L1065.43 125.16C1060.46 125.134 1056.04 126.224 1052.2 128.463L1053.2 130.191ZM1065.42 127.16C1072.04 127.196 1077.34 129.242 1081.42 133.244L1082.82 131.817C1078.32 127.399 1072.49 125.198 1065.43 125.16L1065.42 127.16ZM1081.42 133.247C1085.53 137.252 1087.85 142.702 1088.3 149.696L1090.29 149.568C1089.82 142.181 1087.35 136.23 1082.82 131.814L1081.42 133.247ZM1088.3 149.653L1088.37 153.123L1090.37 153.079L1090.3 149.61L1088.3 149.653ZM1088.37 153.096C1088.33 160.682 1086.19 166.66 1082.02 171.135L1083.49 172.497C1088.06 167.58 1090.33 161.082 1090.37 153.106L1088.37 153.096ZM1082.03 171.132C1077.88 175.563 1072.32 177.792 1065.24 177.754L1065.23 179.754C1072.78 179.794 1078.9 177.397 1083.49 172.5L1082.03 171.132ZM1065.24 177.754C1058.16 177.716 1052.61 175.428 1048.48 170.951L1047.01 172.307C1051.57 177.251 1057.68 179.713 1065.23 179.754L1065.24 177.754ZM1048.48 170.953C1044.37 166.473 1042.29 160.354 1042.33 152.475L1040.33 152.464C1040.28 160.71 1042.47 167.363 1047 172.305L1048.48 170.953ZM1042.33 152.475L1042.33 151.865L1040.33 151.855L1040.33 152.464L1042.33 152.475ZM1053.87 152.911C1053.85 157.827 1054.75 161.757 1056.71 164.567L1058.35 163.421C1056.72 161.086 1055.85 157.631 1055.87 152.922L1053.87 152.911ZM1056.72 164.571C1058.72 167.4 1061.62 168.812 1065.29 168.832L1065.3 166.832C1062.21 166.816 1059.94 165.669 1058.35 163.416L1056.72 164.571ZM1065.29 168.832C1068.87 168.851 1071.74 167.482 1073.8 164.721L1072.2 163.525C1070.54 165.744 1068.28 166.848 1065.3 166.832L1065.29 168.832ZM1073.81 164.716C1075.85 161.937 1076.8 157.649 1076.83 152.05L1074.83 152.039C1074.8 157.502 1073.86 161.266 1072.19 163.53L1073.81 164.716ZM1076.83 152.05C1076.86 147.218 1075.94 143.323 1073.94 140.486L1072.31 141.636C1073.97 144.006 1074.85 147.433 1074.83 152.039L1076.83 152.05ZM1073.94 140.486C1071.91 137.602 1069.02 136.148 1065.37 136.129L1065.36 138.129C1068.4 138.145 1070.67 139.313 1072.31 141.636L1073.94 140.486ZM1065.37 136.129C1061.75 136.109 1058.86 137.536 1056.84 140.401L1058.47 141.556C1060.1 139.253 1062.35 138.113 1065.36 138.129L1065.37 136.129ZM1056.84 140.397C1054.84 143.201 1053.9 147.432 1053.87 152.911L1055.87 152.922C1055.9 147.59 1056.82 143.862 1058.47 141.56L1056.84 140.397ZM1137.93 172.11L1137.13 171.504L1137.13 171.504L1137.93 172.11ZM1111.15 173.655L1111.9 172.996L1110.17 171.013L1110.15 173.65L1111.15 173.655ZM1111.03 197.561L1111.02 198.561L1112.02 198.566L1112.03 197.566L1111.03 197.561ZM1097.48 197.489L1096.48 197.483L1096.47 198.483L1097.47 198.489L1097.48 197.489ZM1097.85 127.271L1097.86 126.271L1096.86 126.266L1096.85 127.266L1097.85 127.271ZM1110.42 127.338L1111.41 127.249L1111.33 126.343L1110.42 126.338L1110.42 127.338ZM1110.86 132.309L1109.86 132.398L1110.07 134.791L1111.62 132.953L1110.86 132.309ZM1127.36 141.35L1126.51 141.889L1126.52 141.896L1127.36 141.35ZM1111.32 142.296L1110.42 141.851L1110.32 142.059L1110.32 142.291L1111.32 142.296ZM1111.21 163.061L1110.21 163.056L1110.21 163.29L1110.31 163.5L1111.21 163.061ZM1142.37 153.337C1142.33 161.002 1140.55 167.025 1137.13 171.504L1138.72 172.717C1142.48 167.796 1144.33 161.308 1144.37 153.348L1142.37 153.337ZM1137.13 171.504C1133.77 175.915 1129.28 178.096 1123.55 178.065L1123.54 180.065C1129.88 180.099 1134.97 177.643 1138.72 172.716L1137.13 171.504ZM1123.55 178.065C1118.69 178.039 1114.84 176.342 1111.9 172.996L1110.4 174.314C1113.74 178.127 1118.15 180.036 1123.54 180.065L1123.55 178.065ZM1110.15 173.65L1110.03 197.556L1112.03 197.566L1112.15 173.66L1110.15 173.65ZM1111.03 196.561L1097.48 196.489L1097.47 198.489L1111.02 198.561L1111.03 196.561ZM1098.48 197.494L1098.85 127.276L1096.85 127.266L1096.48 197.483L1098.48 197.494ZM1097.85 128.271L1110.41 128.338L1110.42 126.338L1097.86 126.271L1097.85 128.271ZM1109.42 127.427L1109.86 132.398L1111.85 132.22L1111.41 127.249L1109.42 127.427ZM1111.62 132.953C1114.73 129.268 1118.73 127.445 1123.73 127.471L1123.74 125.472C1118.17 125.442 1113.59 127.51 1110.09 131.665L1111.62 132.953ZM1123.73 127.471C1129.69 127.503 1134.23 129.715 1137.47 134.082L1139.08 132.891C1135.43 127.972 1130.27 125.506 1123.74 125.472L1123.73 127.471ZM1137.47 134.082C1140.74 138.494 1142.42 144.64 1142.37 152.634L1144.37 152.645C1144.42 144.389 1142.69 137.766 1139.08 132.891L1137.47 134.082ZM1142.37 152.634L1142.37 153.337L1144.37 153.348L1144.37 152.645L1142.37 152.634ZM1130.83 152.291C1130.86 147.474 1130.02 143.606 1128.19 140.805L1126.52 141.896C1128.04 144.237 1128.85 147.66 1128.83 152.28L1130.83 152.291ZM1128.2 140.812C1126.36 137.94 1123.63 136.487 1120.12 136.468L1120.11 138.468C1122.97 138.483 1125.06 139.619 1126.51 141.889L1128.2 140.812ZM1120.12 136.468C1117.87 136.456 1115.89 136.876 1114.25 137.781C1112.59 138.693 1111.31 140.063 1110.42 141.851L1112.22 142.741C1112.94 141.287 1113.94 140.233 1115.21 139.534C1116.49 138.831 1118.11 138.457 1120.11 138.468L1120.12 136.468ZM1110.32 142.291L1110.21 163.056L1112.21 163.067L1112.32 142.301L1110.32 142.291ZM1110.31 163.5C1111.21 165.338 1112.49 166.756 1114.15 167.709C1115.8 168.658 1117.78 169.112 1120.04 169.124L1120.05 167.124C1118.05 167.114 1116.43 166.713 1115.14 165.974C1113.86 165.24 1112.85 164.138 1112.11 162.622L1110.31 163.5ZM1120.04 169.124C1123.6 169.143 1126.37 167.667 1128.19 164.716C1129.97 161.845 1130.8 157.657 1130.83 152.291L1128.83 152.28C1128.8 157.508 1127.98 161.257 1126.49 163.665C1125.05 165.993 1122.95 167.14 1120.05 167.124L1120.04 169.124Z" fill="black"/>
</g>
</g>
<g id="analog-start-btn">
<g id="analog-start" filter="url(#filter4_d)">
<path d="M879.064 89.9975C879.24 78.9532 888.335 70.1425 899.38 70.3184L1189.34 74.9349C1200.39 75.1108 1209.2 84.2065 1209.02 95.2508L1207.28 204.896C1207.1 215.94 1198 224.751 1186.96 224.575L896.997 219.958C885.953 219.782 877.142 210.687 877.318 199.642L879.064 89.9975Z" fill="#2D731B"/>
<path d="M899.539 60.3197C882.973 60.0559 869.329 73.2718 869.065 89.8383L867.32 199.483C867.056 216.05 880.272 229.693 896.838 229.957L1186.8 234.573C1203.37 234.837 1217.01 221.621 1217.28 205.055L1219.02 95.41C1219.28 78.8435 1206.07 65.2 1189.5 64.9362L899.539 60.3197Z" stroke="#2B2929" stroke-width="20" stroke-linecap="round" stroke-linejoin="round"/>
</g>
<g id="start-text">
<path d="M982.414 159.468C982.428 156.811 981.502 154.775 979.634 153.359C977.767 151.911 974.4 150.393 969.533 148.805C964.667 147.185 960.816 145.602 957.981 144.056C950.253 139.827 946.408 134.166 946.446 127.072C946.466 123.385 947.514 120.109 949.592 117.245C951.702 114.35 954.698 112.1 958.582 110.496C962.496 108.892 966.876 108.103 971.719 108.129C976.594 108.155 980.933 109.068 984.736 110.87C988.539 112.64 991.479 115.14 993.556 118.37C995.663 121.6 996.706 125.262 996.685 129.356L982.622 129.281C982.639 126.156 981.668 123.729 979.708 121.999C977.749 120.239 974.988 119.349 971.425 119.33C967.988 119.312 965.312 120.032 963.398 121.491C961.484 122.918 960.521 124.819 960.508 127.194C960.496 129.413 961.596 131.278 963.806 132.79C966.048 134.302 969.338 135.726 973.674 137.061C981.661 139.51 987.473 142.526 991.111 146.108C994.748 149.69 996.552 154.137 996.524 159.449C996.492 165.355 994.233 169.984 989.747 173.335C985.26 176.655 979.236 178.295 971.673 178.254C966.423 178.226 961.647 177.248 957.345 175.318C953.043 173.358 949.76 170.7 947.497 167.344C945.265 163.988 944.16 160.107 944.184 155.701L958.293 155.776C958.253 163.307 962.733 167.097 971.732 167.145C975.076 167.163 977.689 166.505 979.571 165.171C981.454 163.806 982.401 161.905 982.414 159.468ZM1021.66 114.395L1021.59 126.864L1030.26 126.91L1030.21 136.847L1021.54 136.801L1021.4 162.113C1021.39 163.988 1021.74 165.334 1022.46 166.15C1023.17 166.967 1024.54 167.38 1026.58 167.391C1028.08 167.399 1029.4 167.297 1030.56 167.084L1030.51 177.35C1027.85 178.148 1025.11 178.54 1022.3 178.525C1012.8 178.474 1007.98 173.651 1007.84 164.057L1007.99 136.729L1000.58 136.689L1000.64 126.752L1008.04 126.791L1008.11 114.323L1021.66 114.395ZM1066.93 177.825C1066.31 176.603 1065.86 175.085 1065.59 173.271C1062.29 176.91 1058.02 178.715 1052.77 178.687C1047.8 178.661 1043.68 177.201 1040.41 174.309C1037.18 171.416 1035.57 167.783 1035.6 163.408C1035.63 158.033 1037.63 153.919 1041.62 151.065C1045.63 148.211 1051.4 146.789 1058.94 146.798L1065.17 146.831L1065.19 143.925C1065.2 141.581 1064.6 139.703 1063.39 138.29C1062.21 136.878 1060.32 136.164 1057.73 136.151C1055.45 136.138 1053.65 136.676 1052.33 137.762C1051.04 138.849 1050.39 140.346 1050.38 142.252L1036.84 142.18C1036.85 139.242 1037.77 136.528 1039.6 134.038C1041.42 131.548 1044 129.608 1047.32 128.22C1050.64 126.8 1054.36 126.101 1058.48 126.123C1064.73 126.157 1069.68 127.761 1073.32 130.937C1076.99 134.081 1078.81 138.497 1078.78 144.185L1078.66 166.169C1078.67 170.982 1079.32 174.626 1080.62 177.101L1080.61 177.898L1066.93 177.825ZM1055.77 168.344C1057.77 168.354 1059.62 167.927 1061.31 167.061C1063 166.164 1064.26 164.967 1065.08 163.471L1065.13 154.753L1060.07 154.726C1053.28 154.69 1049.66 157.014 1049.2 161.699L1049.15 162.496C1049.14 164.183 1049.73 165.577 1050.91 166.677C1052.09 167.777 1053.71 168.333 1055.77 168.344ZM1117.71 140.08C1115.86 139.82 1114.24 139.687 1112.83 139.679C1107.71 139.652 1104.34 141.368 1102.73 144.828L1102.55 178.015L1089 177.943L1089.28 127.225L1102.07 127.293L1102.41 133.342C1105.16 128.701 1108.94 126.393 1113.75 126.418C1115.25 126.426 1116.65 126.637 1117.96 127.05L1117.71 140.08ZM1142.97 115.043L1142.9 127.511L1151.57 127.558L1151.52 137.495L1142.85 137.449L1142.71 162.761C1142.7 164.636 1143.05 165.981 1143.77 166.798C1144.48 167.614 1145.86 168.028 1147.89 168.039C1149.39 168.047 1150.72 167.944 1151.87 167.732L1151.82 177.997C1149.16 178.795 1146.42 179.187 1143.61 179.172C1134.11 179.121 1129.29 174.299 1129.15 164.704L1129.3 137.376L1121.89 137.337L1121.95 127.399L1129.35 127.439L1129.42 114.97L1142.97 115.043Z" fill="#FFFDFD"/>
<path d="M979.634 153.359L979.022 154.149L979.03 154.156L979.634 153.359ZM969.533 148.805L969.218 149.754L969.223 149.756L969.533 148.805ZM957.981 144.056L957.5 144.933L957.502 144.934L957.981 144.056ZM949.592 117.245L948.784 116.656L948.783 116.658L949.592 117.245ZM958.582 110.496L958.202 109.571L958.2 109.572L958.582 110.496ZM984.736 110.87L984.308 111.774L984.314 111.776L984.736 110.87ZM993.556 118.37L992.714 118.911L992.718 118.917L993.556 118.37ZM996.685 129.356L996.679 130.356L997.679 130.361L997.685 129.361L996.685 129.356ZM982.622 129.281L981.622 129.275L981.617 130.275L982.617 130.281L982.622 129.281ZM979.708 121.999L979.04 122.743L979.046 122.749L979.708 121.999ZM963.398 121.491L963.996 122.292L964.004 122.286L963.398 121.491ZM963.806 132.79L963.242 133.615L963.247 133.619L963.806 132.79ZM973.674 137.061L973.38 138.017L973.381 138.017L973.674 137.061ZM989.747 173.335L990.341 174.139L990.345 174.136L989.747 173.335ZM957.345 175.318L956.93 176.228L956.936 176.231L957.345 175.318ZM947.497 167.344L946.664 167.898L946.668 167.903L947.497 167.344ZM944.184 155.701L944.189 154.701L943.189 154.696L943.184 155.696L944.184 155.701ZM958.293 155.776L959.293 155.782L959.298 154.782L958.298 154.776L958.293 155.776ZM979.571 165.171L980.149 165.987L980.158 165.981L979.571 165.171ZM983.414 159.473C983.43 156.55 982.393 154.196 980.239 152.562L979.03 154.156C980.611 155.354 981.427 157.073 981.414 159.462L983.414 159.473ZM980.247 152.569C978.233 151.007 974.722 149.447 969.844 147.854L969.223 149.756C974.078 151.34 977.301 152.815 979.022 154.149L980.247 152.569ZM969.849 147.856C965.011 146.246 961.222 144.684 958.459 143.178L957.502 144.934C960.411 146.52 964.324 148.125 969.218 149.754L969.849 147.856ZM958.461 143.178C950.963 139.076 947.411 133.709 947.446 127.077L945.446 127.067C945.406 134.622 949.543 140.578 957.5 144.933L958.461 143.178ZM947.446 127.077C947.465 123.59 948.452 120.519 950.402 117.832L948.783 116.658C946.577 119.698 945.467 123.179 945.446 127.067L947.446 127.077ZM950.401 117.834C952.384 115.112 955.22 112.966 958.963 111.42L958.2 109.572C954.176 111.234 951.019 113.588 948.784 116.656L950.401 117.834ZM958.961 111.421C962.737 109.874 966.983 109.103 971.714 109.128L971.725 107.129C966.768 107.102 962.256 107.91 958.202 109.571L958.961 111.421ZM971.714 109.128C976.466 109.154 980.657 110.044 984.308 111.774L985.164 109.966C981.21 108.093 976.723 107.155 971.725 107.129L971.714 109.128ZM984.314 111.776C987.962 113.475 990.75 115.855 992.714 118.911L994.397 117.829C992.209 114.426 989.116 111.806 985.158 109.963L984.314 111.776ZM992.718 118.917C994.712 121.972 995.705 125.44 995.685 129.35L997.685 129.361C997.707 125.084 996.615 121.228 994.393 117.824L992.718 118.917ZM996.69 128.356L982.628 128.281L982.617 130.281L996.679 130.356L996.69 128.356ZM983.622 129.286C983.64 125.934 982.588 123.207 980.37 121.25L979.046 122.749C980.747 124.25 981.638 126.377 981.622 129.275L983.622 129.286ZM980.376 121.256C978.179 119.281 975.151 118.35 971.431 118.33L971.42 120.33C974.825 120.348 977.318 121.197 979.04 122.743L980.376 121.256ZM971.431 118.33C967.864 118.311 964.943 119.056 962.792 120.695L964.004 122.286C965.681 121.008 968.111 120.313 971.42 120.33L971.431 118.33ZM962.8 120.689C960.636 122.303 959.522 124.498 959.508 127.189L961.508 127.199C961.519 125.14 962.332 123.533 963.996 122.292L962.8 120.689ZM959.508 127.189C959.494 129.811 960.822 131.96 963.242 133.615L964.371 131.964C962.369 130.596 961.498 129.014 961.508 127.199L959.508 127.189ZM963.247 133.619C965.607 135.211 969.004 136.669 973.38 138.017L973.969 136.106C969.672 134.782 966.489 133.393 964.366 131.961L963.247 133.619ZM973.381 138.017C981.301 140.446 986.937 143.401 990.409 146.82L991.812 145.395C988.01 141.65 982.022 138.575 973.967 136.105L973.381 138.017ZM990.409 146.82C993.845 150.204 995.551 154.389 995.524 159.444L997.524 159.454C997.554 153.885 995.65 149.175 991.812 145.395L990.409 146.82ZM995.524 159.444C995.494 165.056 993.368 169.382 989.148 172.534L990.345 174.136C995.099 170.586 997.491 165.654 997.524 159.454L995.524 159.444ZM989.152 172.531C984.891 175.684 979.101 177.294 971.679 177.254L971.668 179.254C979.371 179.295 985.629 177.626 990.341 174.139L989.152 172.531ZM971.679 177.254C966.552 177.227 961.916 176.272 957.754 174.406L956.936 176.231C961.379 178.223 966.295 179.226 971.668 179.254L971.679 177.254ZM957.76 174.408C953.597 172.511 950.47 169.963 948.326 166.785L946.668 167.903C949.05 171.436 952.489 174.204 956.93 176.228L957.76 174.408ZM948.329 166.79C946.218 163.615 945.161 159.933 945.184 155.706L943.184 155.696C943.159 160.281 944.312 164.361 946.664 167.898L948.329 166.79ZM944.178 156.701L958.288 156.776L958.298 154.776L944.189 154.701L944.178 156.701ZM957.293 155.771C957.272 159.742 958.45 162.893 960.977 165.03C963.47 167.139 967.112 168.12 971.727 168.145L971.738 166.145C967.353 166.122 964.255 165.184 962.269 163.503C960.316 161.851 959.274 159.342 959.293 155.782L957.293 155.771ZM971.727 168.145C975.19 168.164 978.036 167.485 980.149 165.987L978.993 164.355C977.343 165.525 974.963 166.162 971.738 166.145L971.727 168.145ZM980.158 165.981C982.313 164.418 983.4 162.211 983.414 159.473L981.414 159.462C981.403 161.599 980.594 163.194 978.984 164.362L980.158 165.981ZM1021.66 114.395L1022.66 114.4L1022.66 113.401L1021.66 113.395L1021.66 114.395ZM1021.59 126.864L1020.59 126.858L1020.58 127.858L1021.58 127.864L1021.59 126.864ZM1030.26 126.91L1031.26 126.915L1031.27 125.915L1030.27 125.91L1030.26 126.91ZM1030.21 136.847L1030.2 137.847L1031.2 137.853L1031.21 136.853L1030.21 136.847ZM1021.54 136.801L1021.54 135.801L1020.54 135.796L1020.54 136.796L1021.54 136.801ZM1030.56 167.084L1031.56 167.089L1031.57 165.883L1030.38 166.101L1030.56 167.084ZM1030.51 177.35L1030.79 178.307L1031.5 178.095L1031.51 177.355L1030.51 177.35ZM1007.84 164.057L1006.84 164.051L1006.84 164.061L1006.84 164.071L1007.84 164.057ZM1007.99 136.729L1008.99 136.734L1008.99 135.734L1007.99 135.729L1007.99 136.729ZM1000.58 136.689L999.583 136.684L999.578 137.684L1000.58 137.689L1000.58 136.689ZM1000.64 126.752L1000.64 125.752L999.641 125.747L999.636 126.747L1000.64 126.752ZM1008.04 126.791L1008.04 127.791L1009.04 127.797L1009.04 126.797L1008.04 126.791ZM1008.11 114.323L1008.11 113.323L1007.11 113.318L1007.11 114.318L1008.11 114.323ZM1020.66 114.39L1020.59 126.858L1022.59 126.869L1022.66 114.4L1020.66 114.39ZM1021.58 127.864L1030.26 127.91L1030.27 125.91L1021.59 125.864L1021.58 127.864ZM1029.26 126.905L1029.21 136.842L1031.21 136.853L1031.26 126.915L1029.26 126.905ZM1030.21 135.847L1021.54 135.801L1021.53 137.801L1030.2 137.847L1030.21 135.847ZM1020.54 136.796L1020.4 162.108L1022.4 162.119L1022.54 136.806L1020.54 136.796ZM1020.4 162.108C1020.39 164.064 1020.75 165.715 1021.7 166.809L1023.21 165.492C1022.74 164.953 1022.39 163.912 1022.4 162.119L1020.4 162.108ZM1021.7 166.809C1022.72 167.967 1024.48 168.38 1026.57 168.391L1026.58 166.391C1024.61 166.38 1023.62 165.966 1023.21 165.492L1021.7 166.809ZM1026.57 168.391C1028.12 168.399 1029.51 168.294 1030.74 168.068L1030.38 166.101C1029.3 166.299 1028.03 166.399 1026.58 166.391L1026.57 168.391ZM1029.56 167.079L1029.51 177.344L1031.51 177.355L1031.56 167.089L1029.56 167.079ZM1030.22 176.392C1027.66 177.161 1025.02 177.539 1022.3 177.525L1022.29 179.524C1025.2 179.54 1028.04 179.135 1030.79 178.307L1030.22 176.392ZM1022.3 177.525C1017.71 177.5 1014.43 176.324 1012.27 174.163C1010.11 171.999 1008.91 168.686 1008.84 164.042L1006.84 164.071C1006.91 169.021 1008.19 172.917 1010.85 175.576C1013.51 178.237 1017.38 179.498 1022.29 179.524L1022.3 177.525ZM1008.84 164.062L1008.99 136.734L1006.99 136.723L1006.84 164.051L1008.84 164.062ZM1007.99 135.729L1000.59 135.689L1000.58 137.689L1007.98 137.729L1007.99 135.729ZM1001.58 136.695L1001.64 126.757L999.636 126.747L999.583 136.684L1001.58 136.695ZM1000.63 127.752L1008.04 127.791L1008.05 125.791L1000.64 125.752L1000.63 127.752ZM1009.04 126.797L1009.11 114.328L1007.11 114.318L1007.04 126.786L1009.04 126.797ZM1008.1 115.323L1021.65 115.395L1021.66 113.395L1008.11 113.323L1008.1 115.323ZM1066.93 177.825L1066.03 178.277L1066.31 178.822L1066.92 178.825L1066.93 177.825ZM1065.59 173.271L1066.58 173.123L1066.27 171.037L1064.85 172.599L1065.59 173.271ZM1040.41 174.309L1039.75 175.054L1039.75 175.057L1040.41 174.309ZM1041.62 151.065L1041.04 150.25L1041.03 150.252L1041.62 151.065ZM1058.94 146.798L1058.94 145.798L1058.94 145.798L1058.94 146.798ZM1065.17 146.831L1065.17 147.831L1066.17 147.836L1066.17 146.836L1065.17 146.831ZM1063.39 138.29L1062.62 138.931L1062.63 138.941L1063.39 138.29ZM1052.33 137.762L1051.69 136.991L1051.68 136.998L1052.33 137.762ZM1050.38 142.252L1050.38 143.252L1051.38 143.257L1051.38 142.257L1050.38 142.252ZM1036.84 142.18L1035.84 142.174L1035.83 143.174L1036.83 143.18L1036.84 142.18ZM1047.32 128.22L1047.7 129.142L1047.71 129.139L1047.32 128.22ZM1073.32 130.937L1072.66 131.69L1072.67 131.696L1073.32 130.937ZM1078.66 166.169L1077.66 166.164L1077.66 166.17L1078.66 166.169ZM1080.62 177.101L1081.62 177.107L1081.62 176.857L1081.5 176.637L1080.62 177.101ZM1080.61 177.898L1080.61 178.898L1081.61 178.904L1081.61 177.904L1080.61 177.898ZM1061.31 167.061L1061.77 167.951L1061.77 167.948L1061.78 167.944L1061.31 167.061ZM1065.08 163.471L1065.96 163.952L1066.08 163.73L1066.08 163.477L1065.08 163.471ZM1065.13 154.753L1066.13 154.758L1066.13 153.758L1065.13 153.753L1065.13 154.753ZM1049.2 161.699L1048.2 161.601L1048.2 161.618L1048.2 161.635L1049.2 161.699ZM1049.15 162.496L1048.15 162.432L1048.15 162.461L1048.15 162.49L1049.15 162.496ZM1067.82 177.374C1067.26 176.273 1066.84 174.865 1066.58 173.123L1064.6 173.419C1064.89 175.305 1065.35 176.933 1066.03 178.277L1067.82 177.374ZM1064.85 172.599C1061.76 176.012 1057.76 177.714 1052.77 177.687L1052.76 179.687C1058.27 179.717 1062.83 177.808 1066.33 173.943L1064.85 172.599ZM1052.77 177.687C1048.01 177.662 1044.14 176.269 1041.08 173.56L1039.75 175.057C1043.22 178.133 1047.59 179.66 1052.76 179.687L1052.77 177.687ZM1041.08 173.563C1038.06 170.864 1036.58 167.504 1036.6 163.413L1034.6 163.402C1034.57 168.061 1036.3 171.969 1039.75 175.054L1041.08 173.563ZM1036.6 163.413C1036.62 158.323 1038.5 154.525 1042.2 151.878L1041.03 150.252C1036.76 153.312 1034.63 157.743 1034.6 163.402L1036.6 163.413ZM1042.2 151.88C1045.97 149.195 1051.51 147.789 1058.93 147.798L1058.94 145.798C1051.3 145.789 1045.29 147.227 1041.04 150.25L1042.2 151.88ZM1058.93 147.798L1065.17 147.831L1065.18 145.831L1058.94 145.798L1058.93 147.798ZM1066.17 146.836L1066.19 143.93L1064.19 143.919L1064.17 146.826L1066.17 146.836ZM1066.19 143.93C1066.2 141.41 1065.55 139.278 1064.15 137.639L1062.63 138.941C1063.65 140.128 1064.2 141.752 1064.19 143.919L1066.19 143.93ZM1064.16 137.649C1062.72 135.929 1060.5 135.165 1057.73 135.151L1057.72 137.151C1060.15 137.163 1061.7 137.826 1062.62 138.931L1064.16 137.649ZM1057.73 135.151C1055.3 135.138 1053.24 135.712 1051.69 136.991L1052.96 138.534C1054.05 137.64 1055.6 137.139 1057.72 137.151L1057.73 135.151ZM1051.68 136.998C1050.14 138.3 1049.39 140.091 1049.38 142.247L1051.38 142.257C1051.39 140.601 1051.94 139.398 1052.97 138.526L1051.68 136.998ZM1050.39 141.252L1036.84 141.18L1036.83 143.18L1050.38 143.252L1050.39 141.252ZM1037.84 142.185C1037.85 139.47 1038.7 136.959 1040.4 134.629L1038.79 133.447C1036.85 136.098 1035.85 139.015 1035.84 142.174L1037.84 142.185ZM1040.4 134.629C1042.11 132.308 1044.52 130.473 1047.7 129.142L1046.93 127.297C1043.47 128.744 1040.74 130.787 1038.79 133.447L1040.4 134.629ZM1047.71 129.139C1050.89 127.78 1054.47 127.102 1058.48 127.123L1058.49 125.123C1054.25 125.101 1050.39 125.82 1046.92 127.3L1047.71 129.139ZM1058.48 127.123C1064.56 127.156 1069.25 128.714 1072.66 131.69L1073.98 130.183C1070.11 126.808 1064.91 125.157 1058.49 125.123L1058.48 127.123ZM1072.67 131.696C1076.07 134.615 1077.81 138.729 1077.78 144.18L1079.78 144.19C1079.81 138.266 1077.9 133.548 1073.97 130.177L1072.67 131.696ZM1077.78 144.18L1077.66 166.164L1079.66 166.174L1079.78 144.19L1077.78 144.18ZM1077.66 166.17C1077.67 171.043 1078.32 174.879 1079.73 177.566L1081.5 176.637C1080.32 174.373 1079.67 170.92 1079.66 166.168L1077.66 166.17ZM1079.62 177.096L1079.61 177.893L1081.61 177.904L1081.62 177.107L1079.62 177.096ZM1080.62 176.898L1066.93 176.825L1066.92 178.825L1080.61 178.898L1080.62 176.898ZM1055.77 169.344C1057.92 169.355 1059.93 168.894 1061.77 167.951L1060.86 166.171C1059.31 166.96 1057.63 167.354 1055.78 167.344L1055.77 169.344ZM1061.78 167.944C1063.62 166.967 1065.03 165.64 1065.96 163.952L1064.2 162.99C1063.49 164.294 1062.39 165.36 1060.84 166.177L1061.78 167.944ZM1066.08 163.477L1066.13 154.758L1064.13 154.747L1064.08 163.466L1066.08 163.477ZM1065.13 153.753L1060.07 153.726L1060.06 155.726L1065.12 155.753L1065.13 153.753ZM1060.07 153.726C1056.59 153.707 1053.77 154.29 1051.72 155.6C1049.63 156.945 1048.46 158.987 1048.2 161.601L1050.2 161.797C1050.4 159.726 1051.28 158.264 1052.8 157.284C1054.38 156.27 1056.76 155.708 1060.06 155.726L1060.07 153.726ZM1048.2 161.635L1048.15 162.432L1050.15 162.56L1050.2 161.763L1048.2 161.635ZM1048.15 162.49C1048.14 164.443 1048.83 166.109 1050.23 167.409L1051.59 165.945C1050.62 165.045 1050.14 163.923 1050.15 162.501L1048.15 162.49ZM1050.23 167.409C1051.64 168.724 1053.53 169.332 1055.77 169.344L1055.78 167.344C1053.9 167.334 1052.54 166.831 1051.59 165.945L1050.23 167.409ZM1117.71 140.08L1117.57 141.07L1118.68 141.228L1118.71 140.1L1117.71 140.08ZM1102.73 144.828L1101.82 144.406L1101.73 144.604L1101.73 144.823L1102.73 144.828ZM1102.55 178.015L1102.55 179.015L1103.55 179.021L1103.55 178.021L1102.55 178.015ZM1089 177.943L1088 177.938L1088 178.938L1089 178.943L1089 177.943ZM1089.28 127.225L1089.28 126.225L1088.28 126.22L1088.28 127.22L1089.28 127.225ZM1102.07 127.293L1103.07 127.237L1103.02 126.298L1102.08 126.293L1102.07 127.293ZM1102.41 133.342L1101.42 133.399L1101.6 136.682L1103.28 133.851L1102.41 133.342ZM1117.96 127.05L1118.96 127.07L1118.98 126.322L1118.26 126.096L1117.96 127.05ZM1117.85 139.09C1115.97 138.826 1114.3 138.687 1112.84 138.679L1112.83 140.679C1114.18 140.686 1115.76 140.815 1117.57 141.07L1117.85 139.09ZM1112.84 138.679C1107.48 138.651 1103.66 140.468 1101.82 144.406L1103.63 145.251C1105.02 142.269 1107.94 140.653 1112.83 140.679L1112.84 138.679ZM1101.73 144.823L1101.55 178.01L1103.55 178.021L1103.73 144.834L1101.73 144.823ZM1102.56 177.015L1089.01 176.943L1089 178.943L1102.55 179.015L1102.56 177.015ZM1090 177.948L1090.28 127.23L1088.28 127.22L1088 177.938L1090 177.948ZM1089.27 128.225L1102.07 128.293L1102.08 126.293L1089.28 126.225L1089.27 128.225ZM1101.07 127.35L1101.42 133.399L1103.41 133.286L1103.07 127.237L1101.07 127.35ZM1103.28 133.851C1105.86 129.471 1109.34 127.395 1113.74 127.418L1113.75 125.418C1108.54 125.39 1104.45 127.93 1101.55 132.833L1103.28 133.851ZM1113.74 127.418C1115.15 127.426 1116.46 127.623 1117.66 128.004L1118.26 126.096C1116.85 125.65 1115.35 125.427 1113.75 125.418L1113.74 127.418ZM1116.96 127.03L1116.71 140.06L1118.71 140.1L1118.96 127.07L1116.96 127.03ZM1142.97 115.043L1143.97 115.048L1143.97 114.048L1142.97 114.043L1142.97 115.043ZM1142.9 127.511L1141.9 127.506L1141.89 128.506L1142.89 128.511L1142.9 127.511ZM1151.57 127.558L1152.57 127.563L1152.58 126.563L1151.58 126.558L1151.57 127.558ZM1151.52 137.495L1151.51 138.495L1152.51 138.5L1152.52 137.5L1151.52 137.495ZM1142.85 137.449L1142.85 136.449L1141.85 136.443L1141.85 137.443L1142.85 137.449ZM1151.87 167.732L1152.87 167.737L1152.88 166.53L1151.69 166.748L1151.87 167.732ZM1151.82 177.997L1152.11 178.955L1152.81 178.742L1152.82 178.002L1151.82 177.997ZM1129.15 164.704L1128.15 164.699L1128.15 164.709L1128.15 164.718L1129.15 164.704ZM1129.3 137.376L1130.3 137.382L1130.31 136.382L1129.31 136.376L1129.3 137.376ZM1121.89 137.337L1120.89 137.331L1120.89 138.331L1121.89 138.337L1121.89 137.337ZM1121.95 127.399L1121.95 126.399L1120.95 126.394L1120.95 127.394L1121.95 127.399ZM1129.35 127.439L1129.35 128.439L1130.35 128.444L1130.35 127.444L1129.35 127.439ZM1129.42 114.97L1129.42 113.97L1128.42 113.965L1128.42 114.965L1129.42 114.97ZM1141.97 115.037L1141.9 127.506L1143.9 127.517L1143.97 115.048L1141.97 115.037ZM1142.89 128.511L1151.57 128.558L1151.58 126.558L1142.9 126.511L1142.89 128.511ZM1150.57 127.552L1150.52 137.49L1152.52 137.5L1152.57 127.563L1150.57 127.552ZM1151.52 136.495L1142.85 136.449L1142.84 138.449L1151.51 138.495L1151.52 136.495ZM1141.85 137.443L1141.71 162.755L1143.71 162.766L1143.85 137.454L1141.85 137.443ZM1141.71 162.755C1141.7 164.712 1142.06 166.363 1143.02 167.456L1144.52 166.139C1144.05 165.6 1143.7 164.56 1143.71 162.766L1141.71 162.755ZM1143.02 167.456C1144.03 168.615 1145.79 169.027 1147.88 169.039L1147.89 167.039C1145.92 167.028 1144.94 166.613 1144.52 166.139L1143.02 167.456ZM1147.88 169.039C1149.43 169.047 1150.82 168.942 1152.05 168.715L1151.69 166.748C1150.61 166.947 1149.35 167.046 1147.89 167.039L1147.88 169.039ZM1150.87 167.726L1150.82 177.992L1152.82 178.002L1152.87 167.737L1150.87 167.726ZM1151.53 177.039C1148.97 177.809 1146.33 178.187 1143.61 178.172L1143.6 180.172C1146.51 180.188 1149.35 179.782 1152.11 178.955L1151.53 177.039ZM1143.61 178.172C1139.02 178.148 1135.74 176.972 1133.58 174.81C1131.42 172.647 1130.22 169.334 1130.15 164.69L1128.15 164.718C1128.22 169.669 1129.51 173.565 1132.16 176.224C1134.82 178.885 1138.69 180.146 1143.6 180.172L1143.61 178.172ZM1130.15 164.709L1130.3 137.382L1128.3 137.371L1128.15 164.699L1130.15 164.709ZM1129.31 136.376L1121.9 136.337L1121.89 138.337L1129.29 138.376L1129.31 136.376ZM1122.89 137.342L1122.95 127.405L1120.95 127.394L1120.89 137.331L1122.89 137.342ZM1121.94 128.399L1129.35 128.439L1129.36 126.439L1121.95 126.399L1121.94 128.399ZM1130.35 127.444L1130.42 114.976L1128.42 114.965L1128.35 127.434L1130.35 127.444ZM1129.41 115.97L1142.96 116.043L1142.97 114.043L1129.42 113.97L1129.41 115.97Z" fill="black"/>
</g>
</g>
<circle id="center" cx="1032" cy="1088" r="80" fill="#0D0D0D"/>
</g>
</g>
<defs>
<filter id="filter0_d" x="232.32" y="286.319" width="1657.01" height="1657.01" filterUnits="userSpaceOnUse" color-interpolation-filters="sRGB">
<feFlood flood-opacity="0" result="BackgroundImageFix"/>
<feColorMatrix in="SourceAlpha" type="matrix" values="0 0 0 0 0 0 0 0 0 0 0 0 0 0 0 0 0 0 127 0"/>
<feMorphology radius="10" operator="dilate" in="SourceAlpha" result="effect1_dropShadow"/>
<feOffset dx="20" dy="20"/>
<feGaussianBlur stdDeviation="5"/>
<feColorMatrix type="matrix" values="0 0 0 0 0 0 0 0 0 0 0 0 0 0 0 0 0 0 0.25 0"/>
<feBlend mode="normal" in2="BackgroundImageFix" result="effect1_dropShadow"/>
<feBlend mode="normal" in="SourceGraphic" in2="effect1_dropShadow" result="shape"/>
</filter>
<filter id="filter1_d" x="1489.21" y="219.215" width="394.171" height="375.382" filterUnits="userSpaceOnUse" color-interpolation-filters="sRGB">
<feFlood flood-opacity="0" result="BackgroundImageFix"/>
<feColorMatrix in="SourceAlpha" type="matrix" values="0 0 0 0 0 0 0 0 0 0 0 0 0 0 0 0 0 0 127 0"/>
<feOffset dx="20" dy="20"/>
<feGaussianBlur stdDeviation="5"/>
<feColorMatrix type="matrix" values="0 0 0 0 0 0 0 0 0 0 0 0 0 0 0 0 0 0 0.25 0"/>
<feBlend mode="normal" in2="BackgroundImageFix" result="effect1_dropShadow"/>
<feBlend mode="normal" in="SourceGraphic" in2="effect1_dropShadow" result="shape"/>
</filter>
<filter id="filter2_d" x="189.401" y="257.658" width="400.81" height="383.019" filterUnits="userSpaceOnUse" color-interpolation-filters="sRGB">
<feFlood flood-opacity="0" result="BackgroundImageFix"/>
<feColorMatrix in="SourceAlpha" type="matrix" values="0 0 0 0 0 0 0 0 0 0 0 0 0 0 0 0 0 0 127 0"/>
<feOffset dx="20" dy="20"/>
<feGaussianBlur stdDeviation="5"/>
<feColorMatrix type="matrix" values="0 0 0 0 0 0 0 0 0 0 0 0 0 0 0 0 0 0 0.25 0"/>
<feBlend mode="normal" in2="BackgroundImageFix" result="effect1_dropShadow"/>
<feBlend mode="normal" in="SourceGraphic" in2="effect1_dropShadow" result="shape"/>
</filter>
<filter id="filter3_d" x="857.316" y="50.3164" width="401.709" height="224.262" filterUnits="userSpaceOnUse" color-interpolation-filters="sRGB">
<feFlood flood-opacity="0" result="BackgroundImageFix"/>
<feColorMatrix in="SourceAlpha" type="matrix" values="0 0 0 0 0 0 0 0 0 0 0 0 0 0 0 0 0 0 127 0"/>
<feOffset dx="20" dy="20"/>
<feGaussianBlur stdDeviation="5"/>
<feColorMatrix type="matrix" values="0 0 0 0 0 0 0 0 0 0 0 0 0 0 0 0 0 0 0.25 0"/>
<feBlend mode="normal" in2="BackgroundImageFix" result="effect1_dropShadow"/>
<feBlend mode="normal" in="SourceGraphic" in2="effect1_dropShadow" result="shape"/>
</filter>
<filter id="filter4_d" x="857.316" y="50.3164" width="401.709" height="224.262" filterUnits="userSpaceOnUse" color-interpolation-filters="sRGB">
<feFlood flood-opacity="0" result="BackgroundImageFix"/>
<feColorMatrix in="SourceAlpha" type="matrix" values="0 0 0 0 0 0 0 0 0 0 0 0 0 0 0 0 0 0 127 0"/>
<feOffset dx="20" dy="20"/>
<feGaussianBlur stdDeviation="5"/>
<feColorMatrix type="matrix" values="0 0 0 0 0 0 0 0 0 0 0 0 0 0 0 0 0 0 0.25 0"/>
<feBlend mode="normal" in2="BackgroundImageFix" result="effect1_dropShadow"/>
<feBlend mode="normal" in="SourceGraphic" in2="effect1_dropShadow" result="shape"/>
</filter>
</defs>
</svg>
